<?xml version="1.0" encoding="UTF-8" standalone="no"?>
<!-- Generator: Adobe Illustrator 21.1.0, SVG Export Plug-In . SVG Version: 6.00 Build 0)  -->

<svg
   xmlns:dc="http://purl.org/dc/elements/1.1/"
   xmlns:cc="http://creativecommons.org/ns#"
   xmlns:rdf="http://www.w3.org/1999/02/22-rdf-syntax-ns#"
   xmlns:svg="http://www.w3.org/2000/svg"
   xmlns="http://www.w3.org/2000/svg"
   xmlns:xlink="http://www.w3.org/1999/xlink"
   xmlns:sodipodi="http://sodipodi.sourceforge.net/DTD/sodipodi-0.dtd"
   xmlns:inkscape="http://www.inkscape.org/namespaces/inkscape"
   version="1.1"
   id="Layer_1"
   x="0px"
   y="0px"
   viewBox="0 0 72.146819 87.519599"
   xml:space="preserve"
   sodipodi:docname="Tilda_Icons_1ed_beaker1.svg"
   width="72.14682"
   height="87.5196"
   inkscape:version="0.92.3 (2405546, 2018-03-11)"><metadata
   id="metadata4618"><rdf:RDF><cc:Work
       rdf:about=""><dc:format>image/svg+xml</dc:format><dc:type
         rdf:resource="http://purl.org/dc/dcmitype/StillImage" /></cc:Work></rdf:RDF></metadata><defs
   id="defs4616" /><sodipodi:namedview
   pagecolor="#ffffff"
   bordercolor="#666666"
   borderopacity="1"
   objecttolerance="10"
   gridtolerance="10"
   guidetolerance="10"
   inkscape:pageopacity="0"
   inkscape:pageshadow="2"
   inkscape:window-width="1920"
   inkscape:window-height="1017"
   id="namedview4614"
   showgrid="false"
   inkscape:zoom="8.3067728"
   inkscape:cx="50.646318"
   inkscape:cy="35.153546"
   inkscape:window-x="-8"
   inkscape:window-y="-8"
   inkscape:window-maximized="1"
   inkscape:current-layer="Layer_1" />
<style
   type="text/css"
   id="style4569">
	.st0{fill:none;stroke:#2BACE2;stroke-width:0.3528;stroke-miterlimit:10;}
	.st1{fill:none;stroke:#EC2227;stroke-width:0.3528;stroke-miterlimit:10;}
</style>
<g
   id="g4609"
   transform="translate(-11.244608,-6.8202254)">
	<g
   id="g4607">
		<g
   id="g4601">
			<path
   class="st0"
   d="M 100,6.7"
   id="path4571"
   inkscape:connector-curvature="0"
   style="fill:none;stroke:#2bace2;stroke-width:0.35280001;stroke-miterlimit:10" />
			<path
   class="st0"
   d="M 100,13.3"
   id="path4573"
   inkscape:connector-curvature="0"
   style="fill:none;stroke:#2bace2;stroke-width:0.35280001;stroke-miterlimit:10" />
			<path
   class="st0"
   d="M 100,20"
   id="path4575"
   inkscape:connector-curvature="0"
   style="fill:none;stroke:#2bace2;stroke-width:0.35280001;stroke-miterlimit:10" />
			<path
   class="st0"
   d="M 100,26.7"
   id="path4577"
   inkscape:connector-curvature="0"
   style="fill:none;stroke:#2bace2;stroke-width:0.35280001;stroke-miterlimit:10" />
			<path
   class="st0"
   d="M 100,33.3"
   id="path4579"
   inkscape:connector-curvature="0"
   style="fill:none;stroke:#2bace2;stroke-width:0.35280001;stroke-miterlimit:10" />
			<path
   class="st0"
   d="M 100,40"
   id="path4581"
   inkscape:connector-curvature="0"
   style="fill:none;stroke:#2bace2;stroke-width:0.35280001;stroke-miterlimit:10" />
			<path
   class="st0"
   d="M 100,46.7"
   id="path4583"
   inkscape:connector-curvature="0"
   style="fill:none;stroke:#2bace2;stroke-width:0.35280001;stroke-miterlimit:10" />
			<path
   class="st0"
   d="M 100,53.3"
   id="path4585"
   inkscape:connector-curvature="0"
   style="fill:none;stroke:#2bace2;stroke-width:0.35280001;stroke-miterlimit:10" />
			<path
   class="st0"
   d="M 100,60"
   id="path4587"
   inkscape:connector-curvature="0"
   style="fill:none;stroke:#2bace2;stroke-width:0.35280001;stroke-miterlimit:10" />
			<path
   class="st0"
   d="M 100,66.7"
   id="path4589"
   inkscape:connector-curvature="0"
   style="fill:none;stroke:#2bace2;stroke-width:0.35280001;stroke-miterlimit:10" />
			<path
   class="st0"
   d="M 100,73.3"
   id="path4591"
   inkscape:connector-curvature="0"
   style="fill:none;stroke:#2bace2;stroke-width:0.35280001;stroke-miterlimit:10" />
			<path
   class="st0"
   d="M 100,80"
   id="path4593"
   inkscape:connector-curvature="0"
   style="fill:none;stroke:#2bace2;stroke-width:0.35280001;stroke-miterlimit:10" />
			<path
   class="st0"
   d="M 100,86.7"
   id="path4595"
   inkscape:connector-curvature="0"
   style="fill:none;stroke:#2bace2;stroke-width:0.35280001;stroke-miterlimit:10" />
			<path
   class="st0"
   d="M 100,93.3"
   id="path4597"
   inkscape:connector-curvature="0"
   style="fill:none;stroke:#2bace2;stroke-width:0.35280001;stroke-miterlimit:10" />
			<path
   class="st0"
   d="M 100,100"
   id="path4599"
   inkscape:connector-curvature="0"
   style="fill:none;stroke:#2bace2;stroke-width:0.35280001;stroke-miterlimit:10" />
		</g>
		<path
   class="st1"
   d="M 100,6.7"
   id="path4603"
   inkscape:connector-curvature="0"
   style="fill:none;stroke:#ec2227;stroke-width:0.35280001;stroke-miterlimit:10" />
		<path
   class="st1"
   d="M 100,93.3"
   id="path4605"
   inkscape:connector-curvature="0"
   style="fill:none;stroke:#ec2227;stroke-width:0.35280001;stroke-miterlimit:10" />
	</g>
</g>

<path
   style="opacity:0.17900002;fill:#9ff995;fill-opacity:1;stroke:none;stroke-width:20.40944862;stroke-linecap:round;stroke-linejoin:round;stroke-miterlimit:4;stroke-dasharray:none;stroke-opacity:1"
   d="M 1.8120707,84.45887 C 1.4140263,84.123938 1.2087339,83.522322 1.3389805,83.072459 1.3883782,82.901845 7.1096934,71.401422 14.053018,57.515963 L 26.677243,32.269671 V 22.216451 12.163229 h -2.957108 c -3.199666,0 -3.434387,-0.03658 -3.972162,-0.619137 L 19.463987,11.23646 19.428737,7.411649 c -0.02309,-2.5047167 0.007,-3.9689435 0.08725,-4.2424186 0.06737,-0.2296845 0.278853,-0.5491693 0.46995,-0.709966 l 0.347447,-0.2923579 14.957369,0.00403 c 11.946784,0.00322 15.01019,0.033337 15.219799,0.1496524 0.144338,0.080095 0.36125,0.2955332 0.482029,0.4787516 0.206531,0.3133025 0.219641,0.57039 0.220346,4.3205339 10e-4,5.4225616 0.337716,5.0270036 -4.287447,5.0369476 l -2.981857,0.0064 v 10.04203 10.04203 l 12.722591,25.382719 c 13.480702,26.895207 12.999898,25.87853 12.545305,26.527551 -0.445159,0.635552 2.015201,0.592599 -33.943523,0.592599 H 2.158247 Z M 63.94403,79.26922 c -1.328747,-2.733198 -8.402947,-16.915412 -8.477744,-16.996009 -0.02145,-0.02311 -0.36087,0.20155 -0.754272,0.499245 -0.393403,0.297696 -1.047542,0.699987 -1.453643,0.893979 -0.687528,0.328431 -0.824395,0.352714 -1.987904,0.352714 -1.45927,0 -1.895319,-0.156791 -3.43342,-1.234567 -1.596147,-1.118449 -2.500358,-1.121438 -3.948411,-0.01305 -1.21878,0.932892 -1.953064,1.227499 -3.199474,1.283675 -1.410851,0.06359 -2.179858,-0.197073 -3.626792,-1.229334 -1.563012,-1.115071 -2.309522,-1.178004 -3.57531,-0.301409 -2.005692,1.388998 -2.5741,1.602564 -4.074349,1.530836 -1.154171,-0.05518 -2.076087,-0.428669 -3.207921,-1.299595 -0.769849,-0.592386 -1.314352,-0.82808 -1.913034,-0.82808 -0.618133,0 -1.115378,0.229178 -2.125082,0.979441 -1.265259,0.940153 -2.084496,1.210661 -3.480839,1.14935 -1.230415,-0.05402 -2.110495,-0.406205 -3.168442,-1.267915 -0.357927,-0.291536 -0.689836,-0.529658 -0.737576,-0.529162 -0.04774,4.55e-4 -2.293467,4.447725 -4.990502,9.882728 L 4.8856163,82.023889 H 35.084415 65.283214 Z M 20.32961,61.058625 c 0.18874,-0.0976 0.643522,-0.405881 1.010628,-0.685067 1.340544,-1.019492 2.717187,-1.417836 4.086454,-1.182453 0.949223,0.163176 1.681191,0.505656 2.660306,1.24473 0.964717,0.728207 1.148316,0.800248 2.039449,0.800248 0.759079,0 0.739429,0.0093 2.346832,-1.120828 1.003302,-0.70545 1.773949,-0.954442 2.950745,-0.953367 1.142875,0.001 1.880719,0.243135 2.95752,0.970382 0.390114,0.263473 0.916885,0.619615 1.170604,0.791428 0.381062,0.258044 0.584492,0.312385 1.169453,0.312385 0.904045,0 1.080264,-0.07195 2.188211,-0.893443 2.328071,-1.726159 4.265249,-1.652342 6.975621,0.265806 0.868037,0.614317 0.903439,0.627637 1.668124,0.627637 0.967106,0 1.140421,-0.06539 2.268559,-0.855896 L 54.728239,59.745249 47.971165,46.23148 41.21409,32.71771 41.24412,21.466167 41.27415,10.214623 41.698461,9.825791 42.122773,9.436959 h 3.182315 3.182317 V 7.1650675 4.8931762 H 35.308029 22.128657 l 0.0308,2.2434926 0.0308,2.2434932 3.180648,0.05679 c 2.28482,0.0408 3.252304,0.09774 3.43506,0.202158 0.621179,0.354917 0.597548,-0.120174 0.597548,12.012517 V 32.85524 l -6.535968,13.409912 c -3.594781,7.375452 -6.521261,13.422735 -6.503288,13.438406 0.269938,0.235374 1.652047,1.230926 1.882561,1.356039 0.416863,0.226251 1.644499,0.225678 2.082792,-10e-4 z"
   id="path4630"
   inkscape:connector-curvature="0" /><use
   id="use4710"
   inkscape:spray-origin="#path4630"
   xlink:href="#path4630"
   x="0"
   y="0"
   width="100%"
   height="100%"
   transform="translate(2.3103671,0.40606125)"
   style="fill:#fdff9b;fill-opacity:1" /><use
   id="use4728"
   inkscape:spray-origin="#path4630"
   xlink:href="#path4630"
   x="0"
   y="0"
   width="100%"
   height="100%"
   transform="translate(-0.3591059,-1.5425378)"
   style="fill:#f1f995;fill-opacity:0.68844223;fill-rule:nonzero" /></svg>